{
    "asset" : {
        "generator" : "Khronos glTF Blender I/O v1.7.33",
        "version" : "2.0"
    },
    "scene" : 0,
    "scenes" : [
        {
            "name" : "Scene",
            "nodes" : [
                0,
                1
            ]
        }
    ],
    "nodes" : [
        {
            "mesh" : 0,
            "name" : "donut"
        },
        {
            "mesh" : 1,
            "name" : "icing"
        }
    ],
    "meshes" : [
        {
            "name" : "Torus.001",
            "primitives" : [
                {
                    "attributes" : {
                        "POSITION" : 0,
                        "NORMAL" : 1,
                        "TEXCOORD_0" : 2
                    },
                    "indices" : 3
                }
            ]
        },
        {
            "name" : "Torus.002",
            "primitives" : [
                {
                    "attributes" : {
                        "POSITION" : 4,
                        "NORMAL" : 5,
                        "TEXCOORD_0" : 6
                    },
                    "indices" : 7
                }
            ]
        }
    ],
    "accessors" : [
        {
            "bufferView" : 0,
            "componentType" : 5126,
            "count" : 1066,
            "max" : [
                0.061189040541648865,
                0.027824832126498222,
                0.061189040541648865
            ],
            "min" : [
                -0.061189040541648865,
                -0.02390196919441223,
                -0.06148748844861984
            ],
            "type" : "VEC3"
        },
        {
            "bufferView" : 1,
            "componentType" : 5126,
            "count" : 1066,
            "type" : "VEC3"
        },
        {
            "bufferView" : 2,
            "componentType" : 5126,
            "count" : 1066,
            "type" : "VEC2"
        },
        {
            "bufferView" : 3,
            "componentType" : 5123,
            "count" : 5760,
            "type" : "SCALAR"
        },
        {
            "bufferView" : 4,
            "componentType" : 5126,
            "count" : 738,
            "max" : [
                0.061189040541648865,
                0.027824832126498222,
                0.061189040541648865
            ],
            "min" : [
                -0.06330491602420807,
                -0.005683298222720623,
                -0.06148748844861984
            ],
            "type" : "VEC3"
        },
        {
            "bufferView" : 5,
            "componentType" : 5126,
            "count" : 738,
            "type" : "VEC3"
        },
        {
            "bufferView" : 6,
            "componentType" : 5126,
            "count" : 738,
            "type" : "VEC2"
        },
        {
            "bufferView" : 7,
            "componentType" : 5123,
            "count" : 3840,
            "type" : "SCALAR"
        }
    ],
    "bufferViews" : [
        {
            "buffer" : 0,
            "byteLength" : 12792,
            "byteOffset" : 0
        },
        {
            "buffer" : 0,
            "byteLength" : 12792,
            "byteOffset" : 12792
        },
        {
            "buffer" : 0,
            "byteLength" : 8528,
            "byteOffset" : 25584
        },
        {
            "buffer" : 0,
            "byteLength" : 11520,
            "byteOffset" : 34112
        },
        {
            "buffer" : 0,
            "byteLength" : 8856,
            "byteOffset" : 45632
        },
        {
            "buffer" : 0,
            "byteLength" : 8856,
            "byteOffset" : 54488
        },
        {
            "buffer" : 0,
            "byteLength" : 5904,
            "byteOffset" : 63344
        },
        {
            "buffer" : 0,
            "byteLength" : 7680,
            "byteOffset" : 69248
        }
    ],
    "buffers" : [
        {
            "byteLength" : 76928,
            "uri" : "data:application/octet-stream;base64,"
        }
    ]
}
